<?xml version="1.0" encoding="utf-8"?>
<!-- Generator: Adobe Illustrator 19.1.0, SVG Export Plug-In . SVG Version: 6.00 Build 0)  -->
<svg version="1.1" id="Layer_2" xmlns="http://www.w3.org/2000/svg" xmlns:xlink="http://www.w3.org/1999/xlink" x="0px" y="0px"
	 viewBox="0 0 211.8 219.8" style="enable-background:new 0 0 211.8 219.8;" xml:space="preserve">
<style type="text/css">
	.st0{fill:#FFFFFF;}
</style>
<g>
	<path class="st0" d="M62.1,15.6l10.5,32.3c0.5,1.6,0.8,4.2,0.7,5.8l-2.2,29.5c-0.1,1.6,0.2,4.3,0.8,5.8l7.1,20.5
		c0.5,1.6,0.2,1.8-0.9,0.5L62.8,90.4c-1-1.3-1.7-3.7-1.6-5.4l2.3-24.2c0.2-1.6-0.4-4.1-1.3-5.6L41.4,20.6L2.1,30.1l-1.3,0.3
		c-0.6,0.1-1,0.7-0.8,1.3c0,0.2,0.1,0.3,0.2,0.4l0.8,1c24.1,30.7,29.2,51.4,31.9,62.7c7.9,32.5-1.9,46.5,4.8,74.2
		c6.6,27.2,19.7,37.2,34,43.3c0.6,0.3,1.2,0.4,1.9,0.2l35.9-8.7l35.9-8.7c0.7-0.2,1.2-0.5,1.6-1c10-11.9,17.1-26.8,10.5-54
		c-6.7-27.7-21.8-35.7-29.6-68.2c-2.7-11.2-7.6-32-0.2-70.3l0.2-1.2c0-0.1,0-0.3,0-0.5c-0.1-0.6-0.7-1-1.3-0.8l-1.3,0.3L62.1,15.6z
		 M135.7,182.1c-0.1,0.3-0.4,0.5-0.7,0.5l-4.1,1c-0.3,0.1-0.6,0-0.8-0.3c-0.1-0.1-0.1-0.2-0.2-0.3c-0.1-0.2,0-0.4,0.1-0.6
		c4.9-7.3,7.5-16.4,3.1-34.7c-2.7-11.1-6.4-19.4-11.4-28c-6.1-10.4-11.8-22.4-16.4-41.5c-3.4-14-4.6-27-1.7-55l0.1-1
		c0-0.5,0.4-0.9,0.8-1l2.7-0.7c0.6-0.1,1.2,0.2,1.3,0.8l-0.1,1.2c-2.6,27.9,1.5,44.9,3.7,54.1c4.6,19.1,11.5,30.9,17.6,41.2
		c5,8.5,9.3,15.9,12,26.9C146.4,164.1,140.2,173.8,135.7,182.1z"/>
	<path class="st0" d="M210.9,30.5l-82-10.7c-0.5-0.1-0.9,0.2-1.1,0.5c0,0-0.3,1.3-0.3,1.4c0,0.1,0,0.2,0,0.3
		c0.1,0.3,0.3,0.5,0.6,0.5l76.3,10l-5.8,8.3c-2.3,3.5-4.3,7.3-6.4,11c-2,3.8-3.8,7.6-5.6,11.5c-1.6,4-3.3,7.9-4.5,12
		c-0.7,2-1.4,4.1-1.9,6.2c-0.5,2.1-1.1,4.2-1.5,6.3c-0.4,2.1-0.9,4.2-1.2,6.3c-0.2,1.1-0.4,2-0.5,3.2l-0.4,3.1
		c-0.5,4.2-0.8,8.7-0.8,13c0,4.3,0.3,8.7,0.8,13c1,8.6,2.7,16.8,3.2,24.9c0.2,4,0.2,8.1-0.1,12.1c-0.2,2-0.4,4.1-0.8,5.9
		c-0.4,2.1-0.7,4.2-1.2,6.1c-0.8,3.8-2.1,7.7-3.6,11.3c-1.5,3.6-3.4,7-5.7,10c-2.5,3.3-5.6,6.1-9,8.5l-21-2.9l0,0
		c-0.4-0.1-1.8-0.1-2,0.3c0,0-26.4,6.5-32.8,7.9c-0.2,0-0.5,0.3-0.7,0.5c-0.1,0.1,0,0.8,0,0.9c0.1,0.3,0.3,0.5,0.6,0.5l44.9,6.2
		l0.1-0.1l7.5,1.1c0.8,0.1,1.7,0,2.5-0.4l0,0c3.8-2,7.6-4.2,11.1-7c3.5-2.8,6.8-6.1,9.5-9.8c2.7-3.7,4.9-7.8,6.5-12
		c1.6-4.2,2.9-8.5,3.7-12.9c0.5-2.3,0.7-4.3,1.1-6.4c0.3-2.3,0.5-4.4,0.6-6.7c0.2-4.4,0.2-8.8-0.2-13.2c-0.8-8.7-2.8-17-4-25.1
		c-0.6-4.1-1-8.1-1.1-12.2c-0.1-4.1,0-8.1,0.4-12.3l0.3-3.1c0.1-0.9,0.2-2,0.4-3c0.2-2.1,0.6-4.1,0.9-6.2c0.3-2.1,0.8-4,1.2-6.1
		c0.4-2,1-4,1.6-6c1-4,2.6-7.9,3.9-11.8c1.6-3.8,3.2-7.7,5-11.4c1.9-3.7,3.7-7.4,5.8-11l6.4-10.8c0,0,0,0,0,0
		c0.1-0.1,0.1-0.3,0.2-0.4C211.9,31.1,211.5,30.6,210.9,30.5z"/>
</g>
</svg>
