<?xml version="1.0" encoding="utf-8"?>
<!-- Generator: Adobe Illustrator 16.0.0, SVG Export Plug-In . SVG Version: 6.00 Build 0)  -->
<!DOCTYPE svg PUBLIC "-//W3C//DTD SVG 1.1//EN" "http://www.w3.org/Graphics/SVG/1.1/DTD/svg11.dtd">
<svg version="1.1" id="Layer_1" xmlns="http://www.w3.org/2000/svg" xmlns:xlink="http://www.w3.org/1999/xlink" x="0px" y="0px"
	 width="24px" height="24px" viewBox="0 0 24 24" enable-background="new 0 0 24 24" xml:space="preserve">
<g>
	<path fill="#499FD8" d="M16.023,2h-0.133H9.396H2.903H2.77C2.708,2,2.657,2.051,2.657,2.112c0,0.018,0.004,0.032,0.01,0.047
		L2.72,2.275c1.662,3.64,1.672,5.832,1.672,7.016c0,3.434-1.312,4.586-1.312,7.512c0,2.871,1.064,4.188,2.352,5.133
		C5.481,21.977,5.544,22,5.613,22h3.783h3.784c0.07,0,0.133-0.023,0.182-0.064c1.287-0.944,2.352-2.262,2.352-5.133
		c0-2.926-1.311-4.078-1.311-7.512c0-1.184,0.01-3.376,1.67-7.016l0.054-0.116c0.006-0.015,0.009-0.029,0.009-0.047
		C16.137,2.051,16.086,2,16.023,2z M12.559,20.377c-0.02,0.023-0.05,0.037-0.083,0.037h-0.434c-0.034,0-0.063-0.02-0.076-0.051
		c-0.005-0.01-0.008-0.021-0.008-0.033c0-0.023,0.009-0.045,0.025-0.061c0.666-0.607,1.144-1.449,1.144-3.381
		c0-1.171-0.167-2.093-0.461-3.062c-0.357-1.181-0.636-2.517-0.636-4.537c0-1.48,0.192-2.803,1.152-5.53l0.035-0.097
		c0.016-0.045,0.057-0.077,0.106-0.077h0.286c0.062,0,0.113,0.051,0.113,0.112l-0.037,0.113c-0.936,2.72-0.936,4.51-0.936,5.48
		c0,2.021,0.406,3.357,0.764,4.537c0.295,0.969,0.549,1.805,0.549,2.975C14.062,18.838,13.208,19.66,12.559,20.377z"/>
	<path fill="#499FD8" d="M21.23,2h-3.623c-0.045,0-0.086,0.029-0.104,0.068l-0.05,0.103c-0.009,0.013-0.013,0.026-0.013,0.042
		c0,0.012,0.002,0.022,0.008,0.033c0.013,0.027,0.041,0.046,0.072,0.046l3.084,0.011L20.129,3.23
		c-0.18,0.392-0.33,0.804-0.495,1.208c-0.147,0.409-0.278,0.827-0.407,1.245c-0.104,0.426-0.229,0.847-0.295,1.284
		c-0.039,0.217-0.082,0.434-0.103,0.654c-0.022,0.22-0.06,0.439-0.065,0.66c-0.015,0.222-0.031,0.442-0.033,0.661
		c-0.002,0.111-0.01,0.213-0.006,0.334L18.727,9.6c0.004,0.437,0.045,0.898,0.102,1.334c0.064,0.441,0.15,0.879,0.262,1.307
		c0.221,0.856,0.508,1.668,0.674,2.481c0.079,0.408,0.131,0.818,0.152,1.229c0.005,0.205,0.011,0.42,0.006,0.614
		c-0.01,0.216-0.012,0.439-0.035,0.636c-0.031,0.399-0.104,0.812-0.209,1.194c-0.104,0.388-0.246,0.756-0.439,1.09
		c-0.211,0.373-0.482,0.701-0.795,0.994h-2.176l0,0c-0.047,0-0.086,0.028-0.104,0.069l-0.022,0.045
		c-0.242,0.48-0.543,0.923-0.853,1.277c-0.013,0.014-0.019,0.03-0.019,0.051c0,0.011,0.002,0.021,0.006,0.031
		C15.29,21.982,15.316,22,15.35,22h2.172l0.008-0.006L18.305,22c0.084,0.002,0.17-0.023,0.247-0.076l0,0
		c0.358-0.254,0.712-0.537,1.031-0.869s0.604-0.713,0.826-1.127c0.225-0.414,0.384-0.861,0.491-1.311
		c0.107-0.451,0.173-0.9,0.195-1.363c0.018-0.238,0.016-0.447,0.018-0.666c0-0.236-0.014-0.457-0.025-0.684
		c-0.038-0.453-0.107-0.902-0.208-1.34c-0.207-0.877-0.522-1.688-0.755-2.497c-0.119-0.405-0.21-0.814-0.285-1.229
		c-0.064-0.42-0.115-0.82-0.132-1.252l-0.013-0.324c-0.006-0.096-0.004-0.211-0.006-0.314c-0.004-0.215,0.002-0.428,0.008-0.639
		c-0.002-0.213,0.025-0.423,0.039-0.635c0.012-0.211,0.046-0.421,0.074-0.631c0.047-0.424,0.153-0.836,0.237-1.254
		c0.11-0.41,0.222-0.824,0.351-1.229c0.147-0.399,0.275-0.804,0.435-1.204l0.5-1.19V2.166c0.006-0.016,0.01-0.031,0.01-0.049
		C21.343,2.053,21.292,2,21.23,2z"/>
</g>
</svg>
